# xmcd
#
# Track frame offsets:
#	150
#	98220
#	230827
#
# Disc length: 4800 seconds
#
# Revision: 0
# Processed by: cddbd v1.5.2PL0 Copyright (c) Steve Scherf et al.
# Submitted via: audiograbber 1.83.01
#
DISCID=2012be03
DTITLE=frank goosen - Raketenmänner
DYEAR=1900
DGENRE=
TTITLE0=Overbeck fragt nach
TTITLE1=Männer im Nebel
TTITLE2=Wolffs Liebe
EXTD=
EXTT0=
EXTT1=
EXTT2=
PLAYORDER=
